<svg width="260" height="186" viewBox="0 0 260 186" fill="none" xmlns="http://www.w3.org/2000/svg">
<path d="M118.106 186C183 186 235.606 178.165 235.606 168.5C235.606 158.835 183 151 118.106 151C53.213 151 0.606445 158.835 0.606445 168.5C0.606445 178.165 53.213 186 118.106 186Z" fill="#F5F5F5"/>
<path d="M68.7354 71.5473C68.7354 71.5473 68.3325 59.7676 56.2629 57.4173C44.1932 55.0671 41.0057 54.7689 43.815 50.1048C46.6243 45.4408 54.2295 51.3863 54.2295 51.3863C53.5818 46.4898 50.9107 42.6939 46.6125 40.5615C39.6324 37.4694 31.051 30.2205 34.1183 26.2855C37.1856 22.3504 43.3642 36.4613 49.819 37.8463C49.2861 33.7177 48.0554 29.9385 46.1586 26.6055C43.2474 21.9816 37.1477 15.7535 38.7707 11.6326C40.3937 7.51169 43.265 7.19705 47.7591 18.9207C50.4269 25.9393 53.9583 32.4136 58.3128 38.2693C58.3128 38.2693 55.0705 20.7937 59.1524 16.9766C63.2342 13.1594 66.3917 17.1449 65.3924 23.5718C64.3932 29.9986 62.0927 41.9016 63.4302 46.0339C63.4302 46.0339 63.2367 31.1016 71.9017 28.8221C80.5667 26.5426 72.9898 41.704 69.2322 47.9711C65.4745 54.2381 71.8071 69.8721 71.8071 69.8721L68.7354 71.5473Z" fill="#828282"/>
<path opacity="0.2" d="M68.7354 71.5473C68.7354 71.5473 68.3325 59.7676 56.2629 57.4173C44.1932 55.0671 41.0057 54.7689 43.815 50.1048C46.6243 45.4408 54.2295 51.3863 54.2295 51.3863C53.5818 46.4898 50.9107 42.6939 46.6125 40.5615C39.6324 37.4694 31.051 30.2205 34.1183 26.2855C37.1856 22.3504 43.3642 36.4613 49.819 37.8463C49.2861 33.7177 48.0554 29.9385 46.1586 26.6055C43.2474 21.9816 37.1477 15.7535 38.7707 11.6326C40.3937 7.51169 43.265 7.19705 47.7591 18.9207C50.4269 25.9393 53.9583 32.4136 58.3128 38.2693C58.3128 38.2693 55.0705 20.7937 59.1524 16.9766C63.2342 13.1594 66.3917 17.1449 65.3924 23.5718C64.3932 29.9986 62.0927 41.9016 63.4302 46.0339C63.4302 46.0339 63.2367 31.1016 71.9017 28.8221C80.5667 26.5426 72.9898 41.704 69.2322 47.9711C65.4745 54.2381 71.8071 69.8721 71.8071 69.8721L68.7354 71.5473Z" fill="#997FCD"/>
<path d="M75.4799 71.1619C75.4799 71.1619 64.2152 67.9056 64.8726 55.566C65.53 43.2263 66.0207 40.0491 60.8323 41.6627C55.6439 43.2763 59.4899 52.1649 59.4899 52.1649C54.9286 50.3424 51.9126 46.8182 50.8856 42.1108C49.5991 34.5546 44.6788 24.4287 40.1411 26.4602C35.6033 28.4917 47.7238 37.9537 47.4917 44.5895C43.6405 43.0614 40.2922 40.9409 37.5314 38.2814C33.777 34.3254 29.2423 26.8692 24.8829 27.441C20.5235 28.0129 19.5086 30.742 29.731 37.9742C35.855 42.2802 41.2452 47.2976 45.8397 52.9686C45.8397 52.9686 29.7723 45.5484 25.077 48.6149C20.3816 51.6813 23.4813 55.7126 29.9311 56.3081C36.3809 56.9037 48.4244 57.5362 52.0831 59.8529C52.0831 59.8529 37.7708 56.0242 33.4431 63.9446C29.1154 71.865 45.6009 68.1384 52.5665 65.9918C59.5321 63.8453 73.0941 73.8453 73.0941 73.8453L75.4799 71.1619Z" fill="#CECAD3"/>
<path d="M134.932 133.299C134.932 133.299 144.559 135.307 145.858 124.89C147.157 114.474 147.236 111.658 151.202 115.132C155.168 118.605 150.692 124.27 150.692 124.27C154.669 124.671 157.64 123.025 159.163 119.576C161.334 113.901 166.826 107.618 170.208 111.177C173.59 114.736 162.353 117.471 161.554 123.015C164.907 123.365 167.939 123.016 170.57 121.975C174.207 120.279 178.991 116.029 182.451 118.323C185.91 120.617 186.317 123.27 176.948 124.966C171.337 125.96 166.218 127.843 161.648 130.593C161.648 130.593 175.793 131.185 179.131 135.636C182.469 140.087 179.369 142.133 174.053 139.938C168.737 137.744 158.869 133.273 155.554 133.648C155.554 133.648 167.774 136.478 170.091 144.755C172.407 153.031 159.596 143.144 154.268 138.492C148.94 133.841 136.464 136.408 136.464 136.408L134.932 133.299Z" fill="#CECAD3"/>
<path opacity="0.2" d="M160.614 87.4059C160.614 87.4059 175.136 88.2153 179.265 73.6068C183.394 58.9983 184.088 55.1044 189.532 59.0823C194.977 63.0602 186.887 71.7703 186.887 71.7703C192.973 71.5151 197.913 68.6453 200.976 63.5866C205.494 55.3302 215.287 45.562 219.809 49.7769C224.331 53.9918 206.35 60.0394 203.985 67.8378C209.115 67.6389 213.887 66.5417 218.179 64.5744C224.162 61.5004 232.444 54.6764 237.343 57.1326C242.242 59.5888 242.334 63.1609 227.461 67.3979C218.559 69.9065 210.238 73.5393 202.592 78.2546C202.592 78.2546 224.407 76.1975 228.68 81.6492C232.953 87.1009 227.73 90.5489 219.932 88.6055C212.134 86.6622 197.739 82.5087 192.522 83.6984C192.522 83.6984 210.897 85.1152 212.809 96.0426C214.721 106.97 196.862 95.9551 189.544 90.6313C182.226 85.3074 162.357 91.3758 162.357 91.3758L160.614 87.4059Z" fill="#C9BBDA"/>
<path d="M160.397 95.7579C160.397 95.7579 165.557 82.2414 180.658 84.4191C195.759 86.5968 199.615 87.5535 198.164 80.9829C196.714 74.4123 185.392 78.1651 185.392 78.1651C188.101 72.7478 192.743 69.423 198.635 68.6795C208.056 67.9322 221.009 62.9931 218.978 57.1777C216.947 51.3623 204.07 65.2452 195.937 64.2237C198.211 59.6486 201.161 55.7587 204.714 52.6525C209.963 48.4658 219.595 43.7057 219.339 38.2718C219.084 32.8379 215.834 31.2851 205.893 43.0768C199.971 50.144 193.25 56.2282 185.806 61.2597C185.806 61.2597 196.578 42.2882 193.291 36.1639C190.004 30.0396 184.73 33.4114 183.335 41.2911C181.941 49.1708 179.926 63.9376 176.702 68.1881C176.702 68.1881 182.879 50.9806 173.587 44.7712C164.296 38.5618 167.183 59.284 169.106 68.1032C171.029 76.9223 157.343 92.5213 157.343 92.5213L160.397 95.7579Z" fill="#CECAD3"/>
<path opacity="0.8" d="M131.107 51.3832L128.59 51.4528C128.437 51.1608 128.701 50.6741 129.063 50.1874L129.16 50.0901C129.554 49.6283 129.982 49.1961 130.439 48.7969H130.523L100.696 49.506L101.544 50.8966C102 51.6895 102.253 52.5827 102.281 53.4968L102.476 61.7426C102.601 66.7762 108.205 70.7531 114.991 70.6002H116.771C121.721 70.475 125.892 68.1807 127.756 65.0381C128.317 64.9195 128.844 64.6772 129.299 64.3289L133.999 60.6441C134.319 60.4124 134.581 60.1097 134.764 59.7599C134.947 59.4102 135.047 59.0227 135.056 58.6278L134.945 54.1782C134.903 52.4957 133.165 51.2859 131.107 51.3832ZM133.804 58.0438C133.804 59.4343 133.804 59.337 132.525 60.3243L130.161 61.9512C130.026 62.033 129.871 62.0783 129.713 62.0827C129.554 62.0871 129.397 62.0504 129.257 61.9762C129.117 61.902 128.999 61.7928 128.914 61.6593C128.828 61.5258 128.779 61.3724 128.771 61.2142C128.771 59.0589 128.771 55.4574 128.673 53.5663C128.738 53.1891 128.944 52.8504 129.248 52.6182C129.552 52.3861 129.933 52.2777 130.314 52.3149H131.357C132.664 52.3149 133.735 53.0519 133.763 54.0113L133.804 58.0438Z" fill="white"/>
<path opacity="0.8" d="M121.291 39.1062C121.291 41.6925 118.162 43.7922 114.338 43.7922C110.514 43.7922 107.386 41.6925 107.386 39.1062C107.386 36.5198 110.514 34.4062 114.338 34.4062C118.162 34.4062 121.291 36.5059 121.291 39.1062Z" fill="white"/>
<path opacity="0.8" d="M104.787 31.2362C106.231 31.2362 107.401 30.0657 107.401 28.622C107.401 27.1782 106.231 26.0078 104.787 26.0078C103.343 26.0078 102.173 27.1782 102.173 28.622C102.173 30.0657 103.343 31.2362 104.787 31.2362Z" fill="white"/>
<path d="M81.9114 64.7735L80.9658 33.4035L82.7318 30.1914L84.2057 33.3062L85.0679 61.7283L120.735 69.9602L123.126 71.4063L120.109 73.1722L81.9114 64.7735Z" fill="#698DE1"/>
<path d="M181.606 77.6856C181.606 112.866 148.47 141.357 113.318 141.357C112.122 141.357 110.94 141.33 109.772 141.274C93.5161 140.374 78.2218 133.282 67.0319 121.456C55.842 109.63 49.6064 93.9668 49.6064 77.6856C49.6064 61.4045 55.842 45.7416 67.0319 33.9152C78.2218 22.0888 93.5161 14.9971 109.772 14.0973C110.94 14.0973 112.122 14 113.318 14C148.47 14 181.606 42.5195 181.606 77.6856Z" fill="#9168CC"/>
<path opacity="0.3" d="M174.515 77.6859C174.515 111.67 143.27 139.425 109.772 141.274C93.5161 140.374 78.2218 133.283 67.0319 121.456C55.842 109.63 49.6064 93.9671 49.6064 77.6859C49.6064 61.4048 55.842 45.7419 67.0319 33.9155C78.2218 22.0891 93.5161 14.9975 109.772 14.0977C143.27 15.947 174.515 43.7156 174.515 77.6859Z" fill="#AAB5CE"/>
<path opacity="0.8" d="M166.95 77.1015C166.95 105.329 139.445 128.203 111.218 128.203C97.6647 128.203 84.6669 122.819 75.0835 113.236C65.5001 103.652 60.1162 90.6544 60.1162 77.1015C60.1162 63.5485 65.5001 50.5507 75.0835 40.9673C84.6669 31.3839 97.6647 26 111.218 26C139.445 26 166.95 48.874 166.95 77.1015Z" fill="#F3F6FC"/>
<path opacity="0.8" d="M158.203 68.3832L155.686 68.4528C155.533 68.1608 155.797 67.6741 156.159 67.1874L156.256 67.0901C156.65 66.6283 157.078 66.1961 157.535 65.7969H157.619L127.792 66.506L128.64 67.8966C129.096 68.6895 129.349 69.5827 129.377 70.4968L129.572 78.7426C129.697 83.7762 135.301 87.7531 142.086 87.6002H143.866C148.817 87.475 152.988 85.1807 154.851 82.0381C155.412 81.9195 155.94 81.6772 156.395 81.3289L161.095 77.6441C161.415 77.4124 161.676 77.1097 161.86 76.7599C162.043 76.4102 162.143 76.0227 162.152 75.6278L162.04 71.1782C161.999 69.4957 160.261 68.2859 158.203 68.3832ZM160.9 75.0438C160.9 76.4343 160.9 76.337 159.621 77.3243L157.257 78.9512C157.121 79.033 156.967 79.0783 156.808 79.0827C156.65 79.0871 156.493 79.0504 156.353 78.9762C156.213 78.902 156.095 78.7928 156.009 78.6593C155.924 78.5258 155.875 78.3724 155.867 78.2142C155.867 76.0589 155.866 72.4574 155.769 70.5663C155.834 70.1891 156.039 69.8504 156.344 69.6182C156.648 69.3861 157.029 69.2777 157.41 69.3149H158.453C159.76 69.3149 160.831 70.0519 160.858 71.0113L160.9 75.0438Z" fill="white"/>
<path opacity="0.8" d="M148.387 56.1062C148.387 58.6925 145.258 60.7922 141.434 60.7922C137.61 60.7922 134.481 58.6925 134.481 56.1062C134.481 53.5198 137.61 51.4062 141.434 51.4062C145.258 51.4062 148.387 53.5059 148.387 56.1062Z" fill="white"/>
<path opacity="0.8" d="M131.883 48.2362C133.326 48.2362 134.497 47.0657 134.497 45.622C134.497 44.1782 133.326 43.0078 131.883 43.0078C130.439 43.0078 129.269 44.1782 129.269 45.622C129.269 47.0657 130.439 48.2362 131.883 48.2362Z" fill="white"/>
<path d="M109.007 81.7735L108.062 50.4035L109.827 47.1914L111.301 50.3062L112.164 78.7283L147.83 86.9602L150.222 88.4063L147.205 90.1722L109.007 81.7735Z" fill="#6200EE"/>
</svg>
